# xmcd
#
# Track frame offsets: 
#        150
#        17382
#        29980
#        45587
#        62895
#        84229
#        100066
#        121960
#        137505
#        153561
#        168410
#
# Disc length: 2414 seconds
#
# Revision: 0
# Processed by: cddbd v1.5.2PL0 Copyright (c) Steve Scherf et al.
# Submitted via: ExactAudioCopy v0.95b4
#
DISCID=87096c0b
DTITLE=K'Oz - Funk You
DYEAR=2001
DGENRE=Funk
TTITLE0=Punkin' Frun
TTITLE1=Choco Guatoco
TTITLE2=Extasis
TTITLE3=No Fear Baby
TTITLE4=Pa' Ella
TTITLE5=C'est la Vie
TTITLE6=7
TTITLE7=Money Lady
TTITLE8=Funk You
TTITLE9=No Dejare de Amarte
TTITLE10=Choco Guatoco (Brass)
EXTD=
EXTT0=
EXTT1=
EXTT2=
EXTT3=
EXTT4=
EXTT5=
EXTT6=
EXTT7=
EXTT8=
EXTT9=
EXTT10=
PLAYORDER=
